<svg xmlns="http://www.w3.org/2000/svg" xmlns:v="https://svgstorm.com"
viewBox = "0 0 408 612"
width="408"
height="612">
<g fill="None" fill-opacity="0.0" stroke="#000000" stroke-opacity="0.00" stroke-width="0.3"><path d="
M 0.00 612.00 
L 408.00 612.00
L 408.00 0.00
L 0.00 0.00
L 0.00 612.00
M 118.00 251.00 
C 119.84 265.81 118.00 282.06 118.00 297.00
C 118.00 312.09 116.94 331.88 132.22 337.78 C 147.51 343.67 163.32 334.85 164.00 319.00
C 164.09 317.01 164.00 314.99 164.00 313.00
C 164.00 305.33 164.00 297.67 164.00 290.00
C 164.00 287.67 164.00 285.33 164.00 283.00
C 164.00 280.00 164.00 277.00 164.00 274.00
C 164.00 259.93 162.25 235.44 182.00 238.00 C 201.75 240.56 196.00 263.89 196.00 278.00
C 196.00 282.00 196.00 286.00 196.00 290.00
C 196.00 291.00 196.00 292.00 196.00 293.00
C 196.00 293.50 196.00 294.50 196.00 295.00
C 196.00 304.93 196.48 315.86 195.00 325.00
C 195.03 332.08 191.22 343.95 185.00 348.00
C 185.25 348.25 185.00 349.00 185.00 349.00
C 183.32 352.44 178.88 355.73 176.00 358.00
C 167.80 364.47 155.34 369.72 145.00 369.00 C 134.66 368.28 119.05 370.63 112.00 361.00
C 107.87 360.56 99.87 352.82 98.00 349.00
C 97.80 348.60 98.00 348.00 98.00 348.00
C 82.73 337.33 86.00 305.71 86.00 289.00
C 86.00 284.53 86.49 279.75 87.00 276.00
C 87.00 274.67 87.00 273.33 87.00 272.00
C 87.00 261.64 83.74 247.49 93.25 240.25 C 102.76 233.01 116.66 240.19 118.00 251.00
M 300.00 239.00 
C 308.46 241.19 314.78 251.78 309.68 260.68 C 304.58 269.57 294.47 270.93 284.33 269.67 C 274.19 268.41 262.94 269.71 252.00 269.00 C 241.06 268.29 237.47 280.11 236.00 288.00
C 243.33 287.72 250.44 286.42 258.00 287.00
C 265.26 287.00 272.77 286.43 280.00 287.00
C 288.33 287.66 297.24 290.81 298.93 300.07 C 300.61 309.34 294.46 318.04 285.00 318.00
C 284.00 318.00 283.00 318.00 282.00 318.00
C 274.06 319.74 262.52 319.07 254.00 319.00 C 245.48 318.93 232.53 317.26 239.00 329.00
C 246.93 338.68 258.01 336.74 270.00 337.00 C 281.99 337.26 296.50 334.27 306.25 340.75 C 315.99 347.24 312.31 361.84 303.00 366.00
C 299.12 367.73 295.35 367.91 291.00 368.00
C 288.00 368.06 285.00 368.00 282.00 368.00
C 277.33 368.00 272.67 368.00 268.00 368.00
C 265.36 368.00 262.63 368.21 260.00 368.00
C 254.58 367.57 244.19 368.25 240.00 365.00
C 225.19 367.31 211.19 345.11 208.00 334.00
C 198.91 322.25 210.77 300.74 221.00 294.00
C 224.79 291.51 228.70 290.21 233.00 289.00
C 224.03 274.78 237.48 260.99 253.00 262.00 C 268.52 263.01 286.78 261.13 302.00 259.00
C 307.52 239.61 281.63 247.22 268.00 246.00 C 254.37 244.78 237.07 245.35 226.25 255.25 C 215.42 265.15 214.40 280.27 212.00 293.00
C 211.54 293.14 211.00 293.00 211.00 293.00
C 206.51 296.57 205.56 284.15 206.93 279.93 C 208.30 275.71 207.67 266.31 211.25 262.25 C 214.83 258.19 216.16 253.23 220.75 249.75 C 225.34 246.27 228.66 243.15 234.00 241.00
C 243.61 237.14 255.27 237.68 266.00 238.00 C 276.73 238.32 289.71 236.33 300.00 239.00 Z"/>
</g>
<g fill="None" fill-opacity="0.0" stroke="#349BC7" stroke-opacity="0.15" stroke-width="0.3"><path d="
M 87.00 272.00 
C 87.13 271.78 88.00 272.00 88.00 272.00
C 88.00 265.26 88.03 257.99 89.00 252.00
C 89.22 247.94 89.51 246.83 92.00 244.00
C 96.13 239.30 101.94 237.84 108.00 240.00
C 110.76 240.98 113.51 243.28 115.00 246.00
C 115.59 247.07 115.99 247.71 116.00 249.00
C 116.24 249.44 117.86 250.60 118.00 251.00
C 116.66 240.19 102.76 233.01 93.25 240.25 C 83.74 247.49 87.00 261.64 87.00 272.00 Z"/>
</g>
<g fill="None" fill-opacity="0.0" stroke="#55A9D5" stroke-opacity="0.25" stroke-width="0.3"><path d="
M 164.00 274.00 
C 164.27 276.82 164.26 280.25 164.00 283.00
C 164.00 285.33 164.00 287.67 164.00 290.00
C 164.23 292.42 165.00 295.91 165.00 299.00
C 165.00 298.96 166.00 299.00 166.00 299.00
C 166.00 286.64 166.70 274.36 166.00 262.00 C 165.30 249.64 167.07 238.64 182.00 240.00
C 200.72 241.70 194.00 276.61 194.00 290.00
C 194.16 290.62 195.85 292.42 196.00 293.00
C 196.00 292.00 196.00 291.00 196.00 290.00
C 195.11 285.95 195.63 281.87 196.00 278.00
C 196.00 263.89 201.75 240.56 182.00 238.00 C 162.25 235.44 164.00 259.93 164.00 274.00 Z"/>
</g>
<g fill="None" fill-opacity="0.0" stroke="#3FA1D1" stroke-opacity="0.33" stroke-width="0.3"><path d="
M 234.00 241.00 
C 233.48 241.36 233.39 242.65 233.00 243.00
C 253.28 235.51 278.29 241.95 300.00 240.00
C 299.77 239.84 300.00 239.00 300.00 239.00
C 289.71 236.33 276.73 238.32 266.00 238.00 C 255.27 237.68 243.61 237.14 234.00 241.00 Z"/>
</g>
<g fill="None" fill-opacity="0.0" stroke="#B3EFF9" stroke-opacity="0.85" stroke-width="0.3"><path d="
M 92.00 244.00 
C 101.90 236.11 109.65 242.08 116.00 250.00
C 116.00 249.50 116.00 249.00 116.00 249.00
C 115.99 247.71 115.59 247.07 115.00 246.00
C 113.79 244.32 109.65 240.76 108.00 240.00
C 101.94 237.84 96.13 239.30 92.00 244.00 Z"/>
</g>
<g fill="None" fill-opacity="0.0" stroke="#399CD0" stroke-opacity="0.18" stroke-width="0.3"><path d="
M 300.00 240.00 
C 306.78 244.70 314.21 251.57 307.74 260.74 C 301.28 269.92 291.85 268.09 281.00 268.00 C 270.15 267.91 259.47 268.38 248.00 268.00 C 236.53 267.62 239.89 285.08 232.00 286.00
C 230.73 273.44 237.01 262.70 251.00 263.00 C 264.99 263.30 279.20 263.14 294.00 263.00 C 308.80 262.86 306.41 241.71 292.00 244.00 C 277.59 246.30 262.26 242.48 249.00 244.00 C 235.74 245.52 229.43 249.38 220.75 258.75 C 212.07 268.12 214.09 281.40 212.00 293.00
C 214.40 280.27 215.42 265.15 226.25 255.25 C 237.07 245.35 254.37 244.78 268.00 246.00 C 281.63 247.22 307.52 239.61 302.00 259.00
C 286.78 261.13 268.52 263.01 253.00 262.00 C 237.48 260.99 224.03 274.78 233.00 289.00
C 228.70 290.21 224.79 291.51 221.00 294.00
C 220.50 294.46 220.41 295.57 220.00 296.00
C 223.23 293.60 226.12 292.72 230.00 292.00
C 240.37 288.63 255.70 288.44 267.00 289.00 C 278.30 289.56 293.18 286.00 297.00 299.00
C 299.62 307.93 293.53 316.18 285.00 318.00
C 294.46 318.04 300.61 309.34 298.93 300.07 C 297.24 290.81 288.33 287.66 280.00 287.00
C 273.30 287.12 264.73 287.65 258.00 287.00
C 250.44 286.42 243.33 287.72 236.00 288.00
C 237.47 280.11 241.06 268.29 252.00 269.00 C 262.94 269.71 274.19 268.41 284.33 269.67 C 294.47 270.93 304.58 269.57 309.68 260.68 C 314.78 251.78 308.46 241.19 300.00 239.00
C 300.00 239.00 299.77 239.84 300.00 240.00 Z"/>
</g>
<g fill="None" fill-opacity="0.0" stroke="#F2F6FD" stroke-opacity="0.95" stroke-width="0.3"><path d="
M 92.00 244.00 
C 89.51 246.83 89.22 247.94 89.00 252.00
C 88.50 261.27 89.00 270.71 89.00 280.00
C 89.00 292.67 89.00 305.33 89.00 318.00
C 89.00 329.28 91.22 338.13 98.00 347.00
C 102.04 348.68 105.03 354.15 108.00 357.00
C 109.35 357.71 110.89 359.05 112.00 360.00
C 130.39 372.71 157.84 370.55 175.00 357.00
C 177.94 354.28 180.30 349.81 184.00 348.00
C 184.40 347.80 185.00 348.00 185.00 348.00
C 187.97 338.90 193.29 332.41 194.00 322.00
C 194.52 314.41 194.00 306.61 194.00 299.00
C 193.04 289.09 192.46 275.44 193.00 265.00 C 193.54 254.56 193.36 242.64 182.00 240.00
C 167.07 238.64 165.30 249.64 166.00 262.00 C 166.70 274.36 166.00 286.64 166.00 299.00
C 166.00 306.36 166.18 314.40 165.00 321.00
C 162.15 336.90 148.12 345.05 131.78 339.22 C 115.44 333.40 117.00 313.94 117.00 299.00
C 115.53 283.83 116.00 266.91 116.00 251.00
C 116.00 250.50 116.00 250.00 116.00 250.00
C 109.65 242.08 101.90 236.11 92.00 244.00
M 113.00 252.00 
C 113.94 262.42 112.93 274.37 112.00 284.00
C 112.00 296.58 111.06 309.83 113.00 322.00
C 115.02 334.71 123.71 344.10 137.00 345.00
C 139.60 345.18 142.40 345.14 145.00 345.00
C 159.18 344.23 166.94 335.16 170.00 322.00
C 170.51 317.46 170.00 312.57 170.00 308.00
C 169.15 299.27 167.89 282.90 169.00 274.00 C 170.11 265.10 164.31 246.84 175.00 244.00
C 175.47 243.88 176.00 244.00 176.00 244.00
C 187.00 235.86 192.24 253.96 191.00 263.00 C 189.76 272.04 190.88 289.90 190.00 299.00
C 190.00 306.38 189.90 314.37 189.00 321.00
C 189.00 322.32 189.09 323.68 189.00 325.00
C 188.46 332.63 184.57 339.26 180.00 345.00
C 178.63 347.81 175.06 350.75 173.00 353.00
C 170.85 355.35 169.04 356.83 166.00 358.00
C 165.05 358.37 164.01 358.58 163.00 359.00
C 158.64 361.83 155.68 363.61 150.00 364.00
C 144.48 364.38 138.52 364.30 133.00 364.00
C 127.49 363.70 124.89 362.87 121.00 360.00
C 106.77 349.53 96.64 341.51 94.00 323.00
C 92.67 313.69 93.96 302.91 93.00 293.00
C 91.94 282.03 88.05 258.51 94.00 249.00
C 95.05 246.61 96.72 245.02 99.00 244.00
C 105.27 241.20 111.96 244.96 113.00 252.00 Z"/>
</g>
<g fill="None" fill-opacity="0.0" stroke="#94DAF0" stroke-opacity="0.64" stroke-width="0.3"><path d="
M 115.00 246.00 
C 113.51 243.28 110.76 240.98 108.00 240.00
C 109.65 240.76 113.79 244.32 115.00 246.00 Z"/>
</g>
<g fill="None" fill-opacity="0.0" stroke="#D7FCFE" stroke-opacity="0.89" stroke-width="0.3"><path d="
M 194.00 299.00 
C 194.00 296.00 194.00 293.00 194.00 290.00
C 194.00 276.61 200.72 241.70 182.00 240.00
C 193.36 242.64 193.54 254.56 193.00 265.00 C 192.46 275.44 193.04 289.09 194.00 299.00 Z"/>
</g>
<g fill="None" fill-opacity="0.0" stroke="#D7F9FC" stroke-opacity="0.93" stroke-width="0.3"><path d="
M 233.00 243.00 
C 229.11 246.55 221.42 249.41 218.25 254.25 C 215.08 259.08 210.27 266.28 209.08 271.08 C 207.88 275.88 205.48 293.07 211.00 293.00
C 211.00 293.00 211.54 293.14 212.00 293.00
C 214.09 281.40 212.07 268.12 220.75 258.75 C 229.43 249.38 235.74 245.52 249.00 244.00 C 262.26 242.48 277.59 246.30 292.00 244.00 C 306.41 241.71 308.80 262.86 294.00 263.00 C 279.20 263.14 264.99 263.30 251.00 263.00 C 237.01 262.70 230.73 273.44 232.00 286.00
C 239.89 285.08 236.53 267.62 248.00 268.00 C 259.47 268.38 270.15 267.91 281.00 268.00 C 291.85 268.09 301.28 269.92 307.74 260.74 C 314.21 251.57 306.78 244.70 300.00 240.00
C 278.29 241.95 253.28 235.51 233.00 243.00 Z"/>
</g>
<g fill="None" fill-opacity="0.0" stroke="#3AA1D4" stroke-opacity="0.18" stroke-width="0.3"><path d="
M 211.00 293.00 
C 205.48 293.07 207.88 275.88 209.08 271.08 C 210.27 266.28 215.08 259.08 218.25 254.25 C 221.42 249.41 229.11 246.55 233.00 243.00
C 233.39 242.65 233.48 241.36 234.00 241.00
C 228.66 243.15 225.34 246.27 220.75 249.75 C 216.16 253.23 214.83 258.19 211.25 262.25 C 207.67 266.31 208.30 275.71 206.93 279.93 C 205.56 284.15 206.51 296.57 211.00 293.00 Z"/>
</g>
<g fill="None" fill-opacity="0.0" stroke="#C1F5FD" stroke-opacity="0.91" stroke-width="0.3"><path d="
M 99.00 244.00 
C 104.60 242.52 110.14 245.85 112.00 251.00
C 112.16 251.44 112.00 252.00 112.00 252.00
C 112.25 252.25 113.00 252.00 113.00 252.00
C 111.96 244.96 105.27 241.20 99.00 244.00 Z"/>
</g>
<g fill="None" fill-opacity="0.0" stroke="#D9FCFE" stroke-opacity="0.96" stroke-width="0.3"><path d="
M 176.00 244.00 
C 182.50 243.38 187.05 244.82 189.00 251.00
C 192.80 263.01 190.00 280.88 190.00 294.00
C 190.00 295.67 190.00 297.33 190.00 299.00
C 190.88 289.90 189.76 272.04 191.00 263.00 C 192.24 253.96 187.00 235.86 176.00 244.00 Z"/>
</g>
<g fill="None" fill-opacity="0.0" stroke="#45B3D6" stroke-opacity="0.26" stroke-width="0.3"><path d="
M 94.00 249.00 
C 93.72 249.64 93.15 251.24 93.00 252.00
C 93.09 252.25 93.74 252.88 94.00 253.00
C 94.41 253.19 95.00 253.00 95.00 253.00
C 96.64 243.89 104.38 244.78 110.00 250.00
C 110.25 250.23 111.92 250.83 112.00 251.00
C 110.14 245.85 104.60 242.52 99.00 244.00
C 96.72 245.02 95.05 246.61 94.00 249.00 Z"/>
</g>
<g fill="None" fill-opacity="0.0" stroke="#DEFCFE" stroke-opacity="0.92" stroke-width="0.3"><path d="
M 170.00 308.00 
C 170.00 304.67 170.00 301.33 170.00 298.00
C 170.00 289.33 170.00 280.67 170.00 272.00
C 170.00 265.26 169.01 256.88 171.00 251.00
C 171.18 249.84 171.43 249.04 172.00 248.00
C 172.75 246.65 174.04 245.12 175.00 244.00
C 164.31 246.84 170.11 265.10 169.00 274.00 C 167.89 282.90 169.15 299.27 170.00 308.00 Z"/>
</g>
<g fill="None" fill-opacity="0.0" stroke="#4BABD5" stroke-opacity="0.33" stroke-width="0.3"><path d="
M 172.00 248.00 
C 172.99 246.61 175.41 245.23 177.00 245.00
C 181.58 244.34 184.14 247.33 187.00 250.00
C 187.23 250.22 188.93 250.85 189.00 251.00
C 187.05 244.82 182.50 243.38 176.00 244.00
C 176.00 244.00 175.47 243.88 175.00 244.00
C 174.04 245.12 172.75 246.65 172.00 248.00 Z"/>
</g>
<g fill="None" fill-opacity="0.0" stroke="#2B97CD" stroke-opacity="0.09" stroke-width="0.3"><path d="
M 172.00 248.00 
C 171.43 249.04 171.18 249.84 171.00 251.00
C 170.03 257.31 170.43 265.64 171.00 272.00
C 171.50 272.00 172.00 272.00 172.00 272.00
C 172.00 265.88 168.99 246.95 177.00 245.00
C 175.41 245.23 172.99 246.61 172.00 248.00 Z"/>
</g>
<g fill="None" fill-opacity="0.0" stroke="#000000" stroke-opacity="0.00" stroke-width="0.3"><path d="
M 172.00 272.00 
C 172.00 282.67 172.00 293.33 172.00 304.00
C 172.00 321.90 169.41 341.47 149.98 345.98 C 130.54 350.48 115.02 340.16 111.00 322.00
C 109.15 313.66 110.27 302.51 110.00 294.00 C 109.73 285.49 109.60 285.98 110.00 280.00 C 110.40 274.02 108.82 269.60 110.00 265.00 C 111.18 260.40 107.24 252.94 110.00 250.00
C 104.38 244.78 96.64 243.89 95.00 253.00
C 96.30 267.40 95.00 282.53 95.00 297.00
C 95.00 303.00 95.00 309.00 95.00 315.00
C 95.00 316.00 95.00 317.00 95.00 318.00
C 95.00 330.89 99.75 339.95 107.75 349.25 C 115.76 358.54 127.22 358.89 138.00 362.00
C 138.80 362.23 139.15 362.82 140.00 363.00
C 149.48 362.93 164.04 359.41 172.00 353.00
C 172.23 350.78 177.92 344.79 180.00 344.00
C 181.08 339.11 185.36 329.40 188.00 325.00
C 187.58 320.42 188.00 315.60 188.00 311.00
C 188.00 297.00 188.00 283.00 188.00 269.00
C 188.00 263.21 189.40 255.19 187.00 250.00
C 184.14 247.33 181.58 244.34 177.00 245.00
C 168.99 246.95 172.00 265.88 172.00 272.00 Z"/>
</g>
<g fill="None" fill-opacity="0.0" stroke="#D0FEFE" stroke-opacity="0.92" stroke-width="0.3"><path d="
M 93.00 293.00 
C 91.91 280.99 90.66 263.79 93.00 252.00
C 93.15 251.24 93.72 249.64 94.00 249.00
C 88.05 258.51 91.94 282.03 93.00 293.00 Z"/>
</g>
<g fill="None" fill-opacity="0.0" stroke="#4C98C3" stroke-opacity="0.28" stroke-width="0.3"><path d="
M 116.00 250.00 
C 116.00 250.00 116.00 250.50 116.00 251.00
C 119.80 256.13 116.18 266.19 117.00 273.00 C 117.82 279.81 117.00 289.89 117.00 297.00
C 117.34 296.77 118.00 297.00 118.00 297.00
C 118.00 282.06 119.84 265.81 118.00 251.00
C 117.86 250.60 116.24 249.44 116.00 249.00
C 116.00 249.00 116.00 249.50 116.00 250.00 Z"/>
</g>
<g fill="None" fill-opacity="0.0" stroke="#3F77C5" stroke-opacity="0.13" stroke-width="0.3"><path d="
M 111.00 322.00 
C 111.10 322.20 112.83 321.76 113.00 322.00
C 111.06 309.83 112.00 296.58 112.00 284.00
C 112.00 273.33 112.00 262.67 112.00 252.00
C 112.00 252.00 112.16 251.44 112.00 251.00
C 111.92 250.83 110.25 250.23 110.00 250.00
C 107.24 252.94 111.18 260.40 110.00 265.00 C 108.82 269.60 110.40 274.02 110.00 280.00 C 109.60 285.98 109.73 285.49 110.00 294.00 C 110.27 302.51 109.15 313.66 111.00 322.00 Z"/>
</g>
<g fill="None" fill-opacity="0.0" stroke="#1B8FC9" stroke-opacity="0.07" stroke-width="0.3"><path d="
M 188.00 269.00 
C 188.00 268.96 189.00 269.00 189.00 269.00
C 189.00 264.46 190.86 255.05 189.00 251.00
C 188.93 250.85 187.23 250.22 187.00 250.00
C 189.40 255.19 188.00 263.21 188.00 269.00 Z"/>
</g>
<g fill="None" fill-opacity="0.0" stroke="#C6F9FE" stroke-opacity="0.89" stroke-width="0.3"><path d="
M 117.00 299.00 
C 117.00 298.50 117.00 297.50 117.00 297.00
C 117.00 289.89 117.82 279.81 117.00 273.00 C 116.18 266.19 119.80 256.13 116.00 251.00
C 116.00 266.91 115.53 283.83 117.00 299.00 Z"/>
</g>
<g fill="None" fill-opacity="0.0" stroke="#66B2D8" stroke-opacity="0.49" stroke-width="0.3"><path d="
M 170.00 272.00 
C 170.00 271.96 171.00 272.00 171.00 272.00
C 170.43 265.64 170.03 257.31 171.00 251.00
C 169.01 256.88 170.00 265.26 170.00 272.00 Z"/>
</g>
<g fill="None" fill-opacity="0.0" stroke="#70B4E3" stroke-opacity="0.59" stroke-width="0.3"><path d="
M 189.00 269.00 
C 189.00 277.33 189.00 285.67 189.00 294.00
C 189.00 293.96 190.00 294.00 190.00 294.00
C 190.00 280.88 192.80 263.01 189.00 251.00
C 190.86 255.05 189.00 264.46 189.00 269.00 Z"/>
</g>
<g fill="None" fill-opacity="0.0" stroke="#A0D4EF" stroke-opacity="0.69" stroke-width="0.3"><path d="
M 88.00 272.00 
C 88.00 274.67 88.00 277.33 88.00 280.00
C 88.00 279.96 89.00 280.00 89.00 280.00
C 89.00 270.71 88.50 261.27 89.00 252.00
C 88.03 257.99 88.00 265.26 88.00 272.00 Z"/>
</g>
<g fill="None" fill-opacity="0.0" stroke="#5AA4CB" stroke-opacity="0.41" stroke-width="0.3"><path d="
M 93.00 293.00 
C 93.00 292.96 94.00 293.00 94.00 293.00
C 94.00 280.12 95.83 265.73 94.00 253.00
C 93.74 252.88 93.09 252.25 93.00 252.00
C 90.66 263.79 91.91 280.99 93.00 293.00 Z"/>
</g>
<g fill="None" fill-opacity="0.0" stroke="#A8D8F1" stroke-opacity="0.77" stroke-width="0.3"><path d="
M 112.00 284.00 
C 112.93 274.37 113.94 262.42 113.00 252.00
C 113.00 252.00 112.25 252.25 112.00 252.00
C 112.00 262.67 112.00 273.33 112.00 284.00 Z"/>
</g>
<g fill="None" fill-opacity="0.0" stroke="#0079FF" stroke-opacity="0.01" stroke-width="0.3"><path d="
M 94.00 293.00 
C 94.00 294.33 94.00 295.67 94.00 297.00
C 94.13 297.22 95.00 297.00 95.00 297.00
C 95.00 282.53 96.30 267.40 95.00 253.00
C 95.00 253.00 94.41 253.19 94.00 253.00
C 95.83 265.73 94.00 280.12 94.00 293.00 Z"/>
</g>
<g fill="None" fill-opacity="0.0" stroke="#3D77CF" stroke-opacity="0.05" stroke-width="0.3"><path d="
M 188.00 311.00 
C 188.00 310.96 189.00 311.00 189.00 311.00
C 189.00 305.33 189.00 299.67 189.00 294.00
C 189.00 285.67 189.00 277.33 189.00 269.00
C 189.00 269.00 188.00 268.96 188.00 269.00
C 188.00 283.00 188.00 297.00 188.00 311.00 Z"/>
</g>
<g fill="None" fill-opacity="0.0" stroke="#5D6DC1" stroke-opacity="0.13" stroke-width="0.3"><path d="
M 87.00 276.00 
C 87.00 280.41 86.35 285.34 86.00 289.00
C 86.00 305.71 82.73 337.33 98.00 348.00
C 97.77 347.84 98.00 347.00 98.00 347.00
C 91.22 338.13 89.00 329.28 89.00 318.00
C 87.85 306.09 88.00 292.62 88.00 280.00
C 88.00 277.33 88.00 274.67 88.00 272.00
C 88.00 272.00 87.13 271.78 87.00 272.00
C 87.00 273.33 87.00 274.67 87.00 276.00 Z"/>
</g>
<g fill="None" fill-opacity="0.0" stroke="#5490D2" stroke-opacity="0.24" stroke-width="0.3"><path d="
M 170.00 298.00 
C 170.17 299.47 170.94 301.90 171.00 304.00
C 171.00 304.00 172.00 304.00 172.00 304.00
C 172.00 293.33 172.00 282.67 172.00 272.00
C 172.00 272.00 171.50 272.00 171.00 272.00
C 171.00 272.00 170.00 271.96 170.00 272.00
C 170.00 280.67 170.00 289.33 170.00 298.00 Z"/>
</g>
<g fill="None" fill-opacity="0.0" stroke="#5555AA" stroke-opacity="0.01" stroke-width="0.3"><path d="
M 164.00 283.00 
C 164.26 280.25 164.27 276.82 164.00 274.00
C 164.00 277.00 164.00 280.00 164.00 283.00 Z"/>
</g>
<g fill="None" fill-opacity="0.0" stroke="#0000FF" stroke-opacity="0.00" stroke-width="0.3"><path d="
M 86.00 289.00 
C 86.35 285.34 87.00 280.41 87.00 276.00
C 86.49 279.75 86.00 284.53 86.00 289.00 Z"/>
</g>
<g fill="None" fill-opacity="0.0" stroke="#3B86C4" stroke-opacity="0.02" stroke-width="0.3"><path d="
M 196.00 290.00 
C 196.00 286.00 196.00 282.00 196.00 278.00
C 195.63 281.87 195.11 285.95 196.00 290.00 Z"/>
</g>
<g fill="None" fill-opacity="0.0" stroke="#ABC0E6" stroke-opacity="0.65" stroke-width="0.3"><path d="
M 89.00 318.00 
C 89.00 305.33 89.00 292.67 89.00 280.00
C 89.00 280.00 88.00 279.96 88.00 280.00
C 88.00 292.62 87.85 306.09 89.00 318.00 Z"/>
</g>
<g fill="None" fill-opacity="0.0" stroke="#00AAAA" stroke-opacity="0.01" stroke-width="0.3"><path d="
M 280.00 287.00 
C 272.77 286.43 265.26 287.00 258.00 287.00
C 264.73 287.65 273.30 287.12 280.00 287.00 Z"/>
</g>
<g fill="None" fill-opacity="0.0" stroke="#BBF1FD" stroke-opacity="0.84" stroke-width="0.3"><path d="
M 230.00 292.00 
C 240.74 290.00 256.10 289.63 267.00 290.00 C 277.90 290.37 291.82 287.68 297.00 299.00
C 293.18 286.00 278.30 289.56 267.00 289.00 C 255.70 288.44 240.37 288.63 230.00 292.00 Z"/>
</g>
<g fill="None" fill-opacity="0.0" stroke="#5555AA" stroke-opacity="0.01" stroke-width="0.3"><path d="
M 164.00 313.00 
C 164.39 308.94 165.00 303.74 165.00 299.00
C 165.00 295.91 164.23 292.42 164.00 290.00
C 164.00 297.67 164.00 305.33 164.00 313.00 Z"/>
</g>
<g fill="None" fill-opacity="0.0" stroke="#7694CF" stroke-opacity="0.34" stroke-width="0.3"><path d="
M 194.00 299.00 
C 194.00 306.61 194.52 314.41 194.00 322.00
C 194.01 321.94 195.00 322.00 195.00 322.00
C 195.00 313.98 193.05 301.93 196.00 295.00
C 196.00 294.50 196.00 293.50 196.00 293.00
C 195.85 292.42 194.16 290.62 194.00 290.00
C 194.00 293.00 194.00 296.00 194.00 299.00 Z"/>
</g>
<g fill="None" fill-opacity="0.0" stroke="#F0F3FD" stroke-opacity="0.92" stroke-width="0.3"><path d="
M 230.00 292.00 
C 226.12 292.72 223.23 293.60 220.00 296.00
C 209.48 307.28 204.80 318.50 209.00 334.00
C 212.91 348.42 225.74 360.36 240.00 364.00
C 249.52 366.43 261.87 366.97 272.00 366.00 C 282.13 365.03 295.17 369.13 304.00 364.00
C 310.93 356.58 313.15 344.42 301.97 340.03 C 290.79 335.63 277.34 338.80 266.00 338.00 C 254.66 337.20 241.25 340.76 237.00 328.00
C 232.99 315.96 243.95 317.89 253.00 318.00 C 262.05 318.11 272.80 318.00 282.00 318.00
C 283.00 318.00 284.00 318.00 285.00 318.00
C 293.53 316.18 299.62 307.93 297.00 299.00
C 291.82 287.68 277.90 290.37 267.00 290.00 C 256.10 289.63 240.74 290.00 230.00 292.00
M 293.00 300.00 
C 293.34 301.69 293.59 306.87 292.00 308.00
C 291.61 309.50 288.37 311.45 287.00 312.00
C 273.27 317.45 253.88 310.33 239.00 313.00
C 232.39 315.09 230.34 320.03 231.00 327.00
C 235.57 333.53 239.78 343.59 250.07 342.93 C 260.37 342.27 275.16 344.17 285.00 343.00 C 294.84 341.83 310.84 344.07 305.00 357.00
C 300.58 366.78 285.05 362.89 276.00 363.00 C 266.95 363.11 252.57 365.39 245.00 361.00
C 243.63 360.77 243.93 360.40 243.00 360.00
C 228.71 358.18 217.61 344.93 214.00 332.00
C 209.71 325.66 212.79 315.34 216.00 309.00
C 219.47 302.13 223.84 298.45 231.00 296.00
C 238.85 291.99 254.96 292.22 264.00 293.00 C 273.04 293.78 290.69 288.60 293.00 300.00 Z"/>
</g>
<g fill="None" fill-opacity="0.0" stroke="#7E91C3" stroke-opacity="0.41" stroke-width="0.3"><path d="
M 94.00 323.00 
C 94.02 321.02 94.76 319.33 95.00 318.00
C 95.00 317.00 95.00 316.00 95.00 315.00
C 93.82 309.60 94.00 303.07 94.00 297.00
C 94.00 295.67 94.00 294.33 94.00 293.00
C 94.00 293.00 93.00 292.96 93.00 293.00
C 93.96 302.91 92.67 313.69 94.00 323.00 Z"/>
</g>
<g fill="None" fill-opacity="0.0" stroke="#BDE8FE" stroke-opacity="0.81" stroke-width="0.3"><path d="
M 231.00 296.00 
C 239.41 293.12 255.41 293.31 264.00 294.00 C 272.59 294.69 290.10 289.82 293.00 300.00
C 290.69 288.60 273.04 293.78 264.00 293.00 C 254.96 292.22 238.85 291.99 231.00 296.00 Z"/>
</g>
<g fill="None" fill-opacity="0.0" stroke="#8291DA" stroke-opacity="0.50" stroke-width="0.3"><path d="
M 189.00 311.00 
C 189.00 314.33 189.00 317.67 189.00 321.00
C 189.90 314.37 190.00 306.38 190.00 299.00
C 190.00 297.33 190.00 295.67 190.00 294.00
C 190.00 294.00 189.00 293.96 189.00 294.00
C 189.00 299.67 189.00 305.33 189.00 311.00 Z"/>
</g>
<g fill="None" fill-opacity="0.0" stroke="#5A76CA" stroke-opacity="0.20" stroke-width="0.3"><path d="
M 208.00 334.00 
C 208.19 334.24 209.00 334.00 209.00 334.00
C 204.80 318.50 209.48 307.28 220.00 296.00
C 220.41 295.57 220.50 294.46 221.00 294.00
C 210.77 300.74 198.91 322.25 208.00 334.00 Z"/>
</g>
<g fill="None" fill-opacity="0.0" stroke="#4391CE" stroke-opacity="0.20" stroke-width="0.3"><path d="
M 231.00 296.00 
C 223.84 298.45 219.47 302.13 216.00 309.00
C 216.49 308.52 217.56 308.41 218.00 308.00
C 225.03 296.29 242.83 293.60 255.00 295.00 C 267.17 296.40 294.25 289.00 291.00 307.00
C 290.95 307.30 292.02 307.93 292.00 308.00
C 293.59 306.87 293.34 301.69 293.00 300.00
C 290.10 289.82 272.59 294.69 264.00 294.00 C 255.41 293.31 239.41 293.12 231.00 296.00 Z"/>
</g>
<g fill="None" fill-opacity="0.0" stroke="#5062C6" stroke-opacity="0.02" stroke-width="0.3"><path d="
M 195.00 322.00 
C 195.00 323.00 195.00 324.00 195.00 325.00
C 196.48 315.86 196.00 304.93 196.00 295.00
C 193.05 301.93 195.00 313.98 195.00 322.00 Z"/>
</g>
<g fill="None" fill-opacity="0.0" stroke="#000000" stroke-opacity="0.00" stroke-width="0.3"><path d="
M 218.00 308.00 
C 213.67 315.21 212.89 323.72 215.00 332.00
C 218.47 345.61 231.57 357.42 245.00 360.00
C 246.33 360.00 247.67 360.00 249.00 360.00
C 263.67 360.00 278.33 360.00 293.00 360.00
C 294.15 360.00 295.90 359.67 297.00 360.00
C 311.36 358.75 301.87 341.07 291.00 344.00 C 280.13 346.93 262.93 342.28 253.00 344.00 C 243.07 345.72 230.29 337.36 231.00 328.00
C 227.72 312.15 239.50 310.26 253.00 311.00 C 266.50 311.74 280.36 312.68 291.00 307.00
C 294.25 289.00 267.17 296.40 255.00 295.00 C 242.83 293.60 225.03 296.29 218.00 308.00 Z"/>
</g>
<g fill="None" fill-opacity="0.0" stroke="#8080FF" stroke-opacity="0.01" stroke-width="0.3"><path d="
M 95.00 315.00 
C 95.00 309.00 95.00 303.00 95.00 297.00
C 95.00 297.00 94.13 297.22 94.00 297.00
C 94.00 303.07 93.82 309.60 95.00 315.00 Z"/>
</g>
<g fill="None" fill-opacity="0.0" stroke="#7477C6" stroke-opacity="0.23" stroke-width="0.3"><path d="
M 117.00 299.00 
C 117.00 313.94 115.44 333.40 131.78 339.22 C 148.12 345.05 162.15 336.90 165.00 321.00
C 164.88 319.66 164.25 319.82 164.00 319.00
C 163.32 334.85 147.51 343.67 132.22 337.78 C 116.94 331.88 118.00 312.09 118.00 297.00
C 118.00 297.00 117.34 296.77 117.00 297.00
C 117.00 297.50 117.00 298.50 117.00 299.00 Z"/>
</g>
<g fill="None" fill-opacity="0.0" stroke="#8091CF" stroke-opacity="0.46" stroke-width="0.3"><path d="
M 170.00 308.00 
C 170.00 312.57 170.51 317.46 170.00 322.00
C 171.24 316.68 171.17 310.02 171.00 304.00
C 170.94 301.90 170.17 299.47 170.00 298.00
C 170.00 301.33 170.00 304.67 170.00 308.00 Z"/>
</g>
<g fill="None" fill-opacity="0.0" stroke="#99A1E8" stroke-opacity="0.35" stroke-width="0.3"><path d="
M 164.00 313.00 
C 164.00 314.99 164.09 317.01 164.00 319.00
C 164.25 319.82 164.88 319.66 165.00 321.00
C 166.18 314.40 166.00 306.36 166.00 299.00
C 166.00 299.00 165.00 298.96 165.00 299.00
C 165.00 303.74 164.39 308.94 164.00 313.00 Z"/>
</g>
<g fill="None" fill-opacity="0.0" stroke="#726FC9" stroke-opacity="0.14" stroke-width="0.3"><path d="
M 170.00 322.00 
C 166.94 335.16 159.18 344.23 145.00 345.00
C 142.12 345.47 139.84 345.51 137.00 345.00
C 123.71 344.10 115.02 334.71 113.00 322.00
C 112.83 321.76 111.10 322.20 111.00 322.00
C 115.02 340.16 130.54 350.48 149.98 345.98 C 169.41 341.47 172.00 321.90 172.00 304.00
C 172.00 304.00 171.00 304.00 171.00 304.00
C 171.17 310.02 171.24 316.68 170.00 322.00 Z"/>
</g>
<g fill="None" fill-opacity="0.0" stroke="#4B71C9" stroke-opacity="0.10" stroke-width="0.3"><path d="
M 231.00 328.00 
C 231.04 327.50 231.00 327.00 231.00 327.00
C 230.34 320.03 232.39 315.09 239.00 313.00
C 253.54 308.40 271.89 315.69 287.00 312.00
C 288.37 311.45 291.61 309.50 292.00 308.00
C 292.02 307.93 290.95 307.30 291.00 307.00
C 280.36 312.68 266.50 311.74 253.00 311.00 C 239.50 310.26 227.72 312.15 231.00 328.00 Z"/>
</g>
<g fill="None" fill-opacity="0.0" stroke="#7E8BCE" stroke-opacity="0.15" stroke-width="0.3"><path d="
M 216.00 309.00 
C 212.79 315.34 209.71 325.66 214.00 332.00
C 214.16 332.23 215.00 332.00 215.00 332.00
C 212.89 323.72 213.67 315.21 218.00 308.00
C 217.56 308.41 216.49 308.52 216.00 309.00 Z"/>
</g>
<g fill="None" fill-opacity="0.0" stroke="#5C5EC3" stroke-opacity="0.07" stroke-width="0.3"><path d="
M 188.00 325.00 
C 188.13 324.78 189.00 325.00 189.00 325.00
C 189.09 323.68 189.00 322.32 189.00 321.00
C 189.00 317.67 189.00 314.33 189.00 311.00
C 189.00 311.00 188.00 310.96 188.00 311.00
C 188.00 315.60 187.58 320.42 188.00 325.00 Z"/>
</g>
<g fill="None" fill-opacity="0.0" stroke="#94B5E3" stroke-opacity="0.55" stroke-width="0.3"><path d="
M 239.00 313.00 
C 253.88 310.33 273.27 317.45 287.00 312.00
C 271.89 315.69 253.54 308.40 239.00 313.00 Z"/>
</g>
<g fill="None" fill-opacity="0.0" stroke="#746CC0" stroke-opacity="0.17" stroke-width="0.3"><path d="
M 94.00 323.00 
C 96.64 341.51 106.77 349.53 121.00 360.00
C 124.59 361.60 129.51 361.16 133.00 363.00
C 134.26 362.96 137.57 361.97 138.00 362.00
C 127.22 358.89 115.76 358.54 107.75 349.25 C 99.75 339.95 95.00 330.89 95.00 318.00
C 94.76 319.33 94.02 321.02 94.00 323.00 Z"/>
</g>
<g fill="None" fill-opacity="0.0" stroke="#5574D2" stroke-opacity="0.06" stroke-width="0.3"><path d="
M 237.00 328.00 
C 237.37 328.48 238.69 328.62 239.00 329.00
C 232.53 317.26 245.48 318.93 254.00 319.00 C 262.52 319.07 274.06 319.74 282.00 318.00
C 272.80 318.00 262.05 318.11 253.00 318.00 C 243.95 317.89 232.99 315.96 237.00 328.00 Z"/>
</g>
<g fill="None" fill-opacity="0.0" stroke="#7671BB" stroke-opacity="0.17" stroke-width="0.3"><path d="
M 185.00 348.00 
C 191.22 343.95 195.03 332.08 195.00 325.00
C 195.00 324.00 195.00 323.00 195.00 322.00
C 195.00 322.00 194.01 321.94 194.00 322.00
C 193.29 332.41 187.97 338.90 185.00 348.00 Z"/>
</g>
<g fill="None" fill-opacity="0.0" stroke="#7C70C7" stroke-opacity="0.24" stroke-width="0.3"><path d="
M 180.00 344.00 
C 179.90 344.48 180.00 345.00 180.00 345.00
C 184.57 339.26 188.46 332.63 189.00 325.00
C 189.00 325.00 188.13 324.78 188.00 325.00
C 185.36 329.40 181.08 339.11 180.00 344.00 Z"/>
</g>
<g fill="None" fill-opacity="0.0" stroke="#8B74CA" stroke-opacity="0.14" stroke-width="0.3"><path d="
M 231.00 328.00 
C 230.29 337.36 243.07 345.72 253.00 344.00 C 262.93 342.28 280.13 346.93 291.00 344.00 C 301.87 341.07 311.36 358.75 297.00 360.00
C 297.68 360.20 297.78 361.03 299.00 361.00
C 300.61 360.41 304.10 358.67 305.00 357.00
C 310.84 344.07 294.84 341.83 285.00 343.00 C 275.16 344.17 260.37 342.27 250.07 342.93 C 239.78 343.59 235.57 333.53 231.00 327.00
C 231.00 327.00 231.04 327.50 231.00 328.00 Z"/>
</g>
<g fill="None" fill-opacity="0.0" stroke="#7D6ECA" stroke-opacity="0.15" stroke-width="0.3"><path d="
M 304.00 364.00 
C 303.63 364.40 303.34 365.73 303.00 366.00
C 312.31 361.84 315.99 347.24 306.25 340.75 C 296.50 334.27 281.99 337.26 270.00 337.00 C 258.01 336.74 246.93 338.68 239.00 329.00
C 238.69 328.62 237.37 328.48 237.00 328.00
C 241.25 340.76 254.66 337.20 266.00 338.00 C 277.34 338.80 290.79 335.63 301.97 340.03 C 313.15 344.42 310.93 356.58 304.00 364.00 Z"/>
</g>
<g fill="None" fill-opacity="0.0" stroke="#7969C2" stroke-opacity="0.15" stroke-width="0.3"><path d="
M 243.00 360.00 
C 243.49 360.06 244.50 360.00 245.00 360.00
C 231.57 357.42 218.47 345.61 215.00 332.00
C 215.00 332.00 214.16 332.23 214.00 332.00
C 217.61 344.93 228.71 358.18 243.00 360.00 Z"/>
</g>
<g fill="None" fill-opacity="0.0" stroke="#8B70CB" stroke-opacity="0.21" stroke-width="0.3"><path d="
M 240.00 365.00 
C 239.76 364.81 240.00 364.00 240.00 364.00
C 225.74 360.36 212.91 348.42 209.00 334.00
C 209.00 334.00 208.19 334.24 208.00 334.00
C 211.19 345.11 225.19 367.31 240.00 365.00 Z"/>
</g>
<g fill="None" fill-opacity="0.0" stroke="#675FC3" stroke-opacity="0.09" stroke-width="0.3"><path d="
M 172.00 353.00 
C 172.14 352.78 173.00 353.00 173.00 353.00
C 175.06 350.75 178.63 347.81 180.00 345.00
C 180.00 345.00 179.90 344.48 180.00 344.00
C 177.92 344.79 172.23 350.78 172.00 353.00 Z"/>
</g>
<g fill="None" fill-opacity="0.0" stroke="#C4ACE8" stroke-opacity="0.72" stroke-width="0.3"><path d="
M 145.00 345.00 
C 142.40 345.14 139.60 345.18 137.00 345.00
C 139.84 345.51 142.12 345.47 145.00 345.00 Z"/>
</g>
<g fill="None" fill-opacity="0.0" stroke="#E4D4FD" stroke-opacity="0.80" stroke-width="0.3"><path d="
M 98.00 348.00 
C 101.31 350.32 104.72 353.74 107.00 357.00
C 107.40 357.20 108.00 357.00 108.00 357.00
C 105.03 354.15 102.04 348.68 98.00 347.00
C 98.00 347.00 97.77 347.84 98.00 348.00 Z"/>
</g>
<g fill="None" fill-opacity="0.0" stroke="#907CC6" stroke-opacity="0.34" stroke-width="0.3"><path d="
M 98.00 349.00 
C 101.18 351.22 103.57 355.32 107.00 357.00
C 104.72 353.74 101.31 350.32 98.00 348.00
C 98.00 348.00 97.80 348.60 98.00 349.00 Z"/>
</g>
<g fill="None" fill-opacity="0.0" stroke="#EFDDFD" stroke-opacity="0.78" stroke-width="0.3"><path d="
M 175.00 357.00 
C 178.25 354.44 181.65 351.36 184.00 348.00
C 180.30 349.81 177.94 354.28 175.00 357.00 Z"/>
</g>
<g fill="None" fill-opacity="0.0" stroke="#A57BD3" stroke-opacity="0.18" stroke-width="0.3"><path d="
M 175.00 357.00 
C 157.84 370.55 130.39 372.71 112.00 360.00
C 112.25 360.21 112.00 361.00 112.00 361.00
C 119.05 370.63 134.66 368.28 145.00 369.00 C 155.34 369.72 167.80 364.47 176.00 358.00
C 179.09 355.15 181.51 351.43 185.00 349.00
C 185.00 349.00 185.25 348.25 185.00 348.00
C 185.00 348.00 184.40 347.80 184.00 348.00
C 181.65 351.36 178.25 354.44 175.00 357.00 Z"/>
</g>
<g fill="None" fill-opacity="0.0" stroke="#7861C2" stroke-opacity="0.11" stroke-width="0.3"><path d="
M 112.00 361.00 
C 112.00 361.00 112.25 360.21 112.00 360.00
C 110.89 359.05 109.35 357.71 108.00 357.00
C 108.00 357.00 107.40 357.20 107.00 357.00
C 103.57 355.32 101.18 351.22 98.00 349.00
C 99.87 352.82 107.87 360.56 112.00 361.00 Z"/>
</g>
<g fill="None" fill-opacity="0.0" stroke="#6759B9" stroke-opacity="0.03" stroke-width="0.3"><path d="
M 176.00 358.00 
C 178.88 355.73 183.32 352.44 185.00 349.00
C 181.51 351.43 179.09 355.15 176.00 358.00 Z"/>
</g>
<g fill="None" fill-opacity="0.0" stroke="#8F64BD" stroke-opacity="0.15" stroke-width="0.3"><path d="
M 140.00 363.00 
C 142.84 363.60 147.10 363.26 150.00 363.00
C 154.49 362.60 158.86 360.72 163.00 359.00
C 164.01 358.58 165.05 358.37 166.00 358.00
C 167.64 357.07 170.95 354.68 172.00 353.00
C 164.04 359.41 149.48 362.93 140.00 363.00 Z"/>
</g>
<g fill="None" fill-opacity="0.0" stroke="#F2D9FC" stroke-opacity="0.73" stroke-width="0.3"><path d="
M 166.00 358.00 
C 169.04 356.83 170.85 355.35 173.00 353.00
C 173.00 353.00 172.14 352.78 172.00 353.00
C 170.95 354.68 167.64 357.07 166.00 358.00 Z"/>
</g>
<g fill="None" fill-opacity="0.0" stroke="#FCECFE" stroke-opacity="0.95" stroke-width="0.3"><path d="
M 299.00 361.00 
C 291.25 363.86 280.71 361.47 272.00 362.00 C 263.29 362.53 253.39 362.40 245.00 361.00
C 252.57 365.39 266.95 363.11 276.00 363.00 C 285.05 362.89 300.58 366.78 305.00 357.00
C 304.10 358.67 300.61 360.41 299.00 361.00 Z"/>
</g>
<g fill="None" fill-opacity="0.0" stroke="#EFD8F9" stroke-opacity="0.84" stroke-width="0.3"><path d="
M 150.00 363.00 
C 149.79 363.11 150.00 364.00 150.00 364.00
C 155.68 363.61 158.64 361.83 163.00 359.00
C 158.86 360.72 154.49 362.60 150.00 363.00 Z"/>
</g>
<g fill="None" fill-opacity="0.0" stroke="#F1DBFA" stroke-opacity="0.85" stroke-width="0.3"><path d="
M 133.00 364.00 
C 132.96 364.00 133.00 363.00 133.00 363.00
C 129.51 361.16 124.59 361.60 121.00 360.00
C 124.89 362.87 127.49 363.70 133.00 364.00 Z"/>
</g>
<g fill="None" fill-opacity="0.0" stroke="#C4A0E5" stroke-opacity="0.57" stroke-width="0.3"><path d="
M 245.00 361.00 
C 253.39 362.40 263.29 362.53 272.00 362.00 C 280.71 361.47 291.25 363.86 299.00 361.00
C 297.78 361.03 297.68 360.20 297.00 360.00
C 295.90 359.67 294.15 360.00 293.00 360.00
C 279.56 361.83 262.37 361.82 249.00 360.00
C 247.67 360.00 246.33 360.00 245.00 360.00
C 244.50 360.00 243.49 360.06 243.00 360.00
C 243.93 360.40 243.63 360.77 245.00 361.00 Z"/>
</g>
<g fill="None" fill-opacity="0.0" stroke="#808080" stroke-opacity="0.01" stroke-width="0.3"><path d="
M 293.00 360.00 
C 278.33 360.00 263.67 360.00 249.00 360.00
C 262.37 361.82 279.56 361.83 293.00 360.00 Z"/>
</g>
<g fill="None" fill-opacity="0.0" stroke="#C2A2E1" stroke-opacity="0.56" stroke-width="0.3"><path d="
M 133.00 363.00 
C 133.00 363.00 132.96 364.00 133.00 364.00
C 138.52 364.30 144.48 364.38 150.00 364.00
C 150.00 364.00 149.79 363.11 150.00 363.00
C 147.10 363.26 142.84 363.60 140.00 363.00
C 139.15 362.82 138.80 362.23 138.00 362.00
C 137.57 361.97 134.26 362.96 133.00 363.00 Z"/>
</g>
<g fill="None" fill-opacity="0.0" stroke="#BE7CE4" stroke-opacity="0.16" stroke-width="0.3"><path d="
M 240.00 365.00 
C 244.19 368.25 254.58 367.57 260.00 368.00
C 262.14 367.96 265.81 367.79 268.00 368.00
C 272.67 368.00 277.33 368.00 282.00 368.00
C 284.77 367.73 288.32 367.79 291.00 368.00
C 295.35 367.91 299.12 367.73 303.00 366.00
C 303.34 365.73 303.63 364.40 304.00 364.00
C 295.17 369.13 282.13 365.03 272.00 366.00 C 261.87 366.97 249.52 366.43 240.00 364.00
C 240.00 364.00 239.76 364.81 240.00 365.00 Z"/>
</g>
<g fill="None" fill-opacity="0.0" stroke="#8080FF" stroke-opacity="0.01" stroke-width="0.3"><path d="
M 260.00 368.00 
C 262.63 368.21 265.36 368.00 268.00 368.00
C 265.81 367.79 262.14 367.96 260.00 368.00 Z"/>
</g>
<g fill="None" fill-opacity="0.0" stroke="#AA55AA" stroke-opacity="0.01" stroke-width="0.3"><path d="
M 282.00 368.00 
C 285.00 368.00 288.00 368.06 291.00 368.00
C 288.32 367.79 284.77 367.73 282.00 368.00 Z"/>
</g>
<g fill="#000000" fill-opacity="0.00" stroke="None">
<path d="
M 0.00 612.00 
L 408.00 612.00
L 408.00 0.00
L 0.00 0.00
L 0.00 612.00
M 118.00 251.00 
C 119.84 265.81 118.00 282.06 118.00 297.00
C 118.00 312.09 116.94 331.88 132.22 337.78 C 147.51 343.67 163.32 334.85 164.00 319.00
C 164.09 317.01 164.00 314.99 164.00 313.00
C 164.00 305.33 164.00 297.67 164.00 290.00
C 164.00 287.67 164.00 285.33 164.00 283.00
C 164.00 280.00 164.00 277.00 164.00 274.00
C 164.00 259.93 162.25 235.44 182.00 238.00 C 201.75 240.56 196.00 263.89 196.00 278.00
C 196.00 282.00 196.00 286.00 196.00 290.00
C 196.00 291.00 196.00 292.00 196.00 293.00
C 196.00 293.50 196.00 294.50 196.00 295.00
C 196.00 304.93 196.48 315.86 195.00 325.00
C 195.03 332.08 191.22 343.95 185.00 348.00
C 185.25 348.25 185.00 349.00 185.00 349.00
C 183.32 352.44 178.88 355.73 176.00 358.00
C 167.80 364.47 155.34 369.72 145.00 369.00 C 134.66 368.28 119.05 370.63 112.00 361.00
C 107.87 360.56 99.87 352.82 98.00 349.00
C 97.80 348.60 98.00 348.00 98.00 348.00
C 82.73 337.33 86.00 305.71 86.00 289.00
C 86.00 284.53 86.49 279.75 87.00 276.00
C 87.00 274.67 87.00 273.33 87.00 272.00
C 87.00 261.64 83.74 247.49 93.25 240.25 C 102.76 233.01 116.66 240.19 118.00 251.00
M 300.00 239.00 
C 308.46 241.19 314.78 251.78 309.68 260.68 C 304.58 269.57 294.47 270.93 284.33 269.67 C 274.19 268.41 262.94 269.71 252.00 269.00 C 241.06 268.29 237.47 280.11 236.00 288.00
C 243.33 287.72 250.44 286.42 258.00 287.00
C 265.26 287.00 272.77 286.43 280.00 287.00
C 288.33 287.66 297.24 290.81 298.93 300.07 C 300.61 309.34 294.46 318.04 285.00 318.00
C 284.00 318.00 283.00 318.00 282.00 318.00
C 274.06 319.74 262.52 319.07 254.00 319.00 C 245.48 318.93 232.53 317.26 239.00 329.00
C 246.93 338.68 258.01 336.74 270.00 337.00 C 281.99 337.26 296.50 334.27 306.25 340.75 C 315.99 347.24 312.31 361.84 303.00 366.00
C 299.12 367.73 295.35 367.91 291.00 368.00
C 288.00 368.06 285.00 368.00 282.00 368.00
C 277.33 368.00 272.67 368.00 268.00 368.00
C 265.36 368.00 262.63 368.21 260.00 368.00
C 254.58 367.57 244.19 368.25 240.00 365.00
C 225.19 367.31 211.19 345.11 208.00 334.00
C 198.91 322.25 210.77 300.74 221.00 294.00
C 224.79 291.51 228.70 290.21 233.00 289.00
C 224.03 274.78 237.48 260.99 253.00 262.00 C 268.52 263.01 286.78 261.13 302.00 259.00
C 307.52 239.61 281.63 247.22 268.00 246.00 C 254.37 244.78 237.07 245.35 226.25 255.25 C 215.42 265.15 214.40 280.27 212.00 293.00
C 211.54 293.14 211.00 293.00 211.00 293.00
C 206.51 296.57 205.56 284.15 206.93 279.93 C 208.30 275.71 207.67 266.31 211.25 262.25 C 214.83 258.19 216.16 253.23 220.75 249.75 C 225.34 246.27 228.66 243.15 234.00 241.00
C 243.61 237.14 255.27 237.68 266.00 238.00 C 276.73 238.32 289.71 236.33 300.00 239.00 Z"/>
</g>
<g fill="#349BC7" fill-opacity="0.15" stroke="None">
<path d="
M 87.00 272.00 
C 87.13 271.78 88.00 272.00 88.00 272.00
C 88.00 265.26 88.03 257.99 89.00 252.00
C 89.22 247.94 89.51 246.83 92.00 244.00
C 96.13 239.30 101.94 237.84 108.00 240.00
C 110.76 240.98 113.51 243.28 115.00 246.00
C 115.59 247.07 115.99 247.71 116.00 249.00
C 116.24 249.44 117.86 250.60 118.00 251.00
C 116.66 240.19 102.76 233.01 93.25 240.25 C 83.74 247.49 87.00 261.64 87.00 272.00 Z"/>
</g>
<g fill="#55A9D5" fill-opacity="0.25" stroke="None">
<path d="
M 164.00 274.00 
C 164.27 276.82 164.26 280.25 164.00 283.00
C 164.00 285.33 164.00 287.67 164.00 290.00
C 164.23 292.42 165.00 295.91 165.00 299.00
C 165.00 298.96 166.00 299.00 166.00 299.00
C 166.00 286.64 166.70 274.36 166.00 262.00 C 165.30 249.64 167.07 238.64 182.00 240.00
C 200.72 241.70 194.00 276.61 194.00 290.00
C 194.16 290.62 195.85 292.42 196.00 293.00
C 196.00 292.00 196.00 291.00 196.00 290.00
C 195.11 285.95 195.63 281.87 196.00 278.00
C 196.00 263.89 201.75 240.56 182.00 238.00 C 162.25 235.44 164.00 259.93 164.00 274.00 Z"/>
</g>
<g fill="#3FA1D1" fill-opacity="0.33" stroke="None">
<path d="
M 234.00 241.00 
C 233.48 241.36 233.39 242.65 233.00 243.00
C 253.28 235.51 278.29 241.95 300.00 240.00
C 299.77 239.84 300.00 239.00 300.00 239.00
C 289.71 236.33 276.73 238.32 266.00 238.00 C 255.27 237.68 243.61 237.14 234.00 241.00 Z"/>
</g>
<g fill="#B3EFF9" fill-opacity="0.85" stroke="None">
<path d="
M 92.00 244.00 
C 101.90 236.11 109.65 242.08 116.00 250.00
C 116.00 249.50 116.00 249.00 116.00 249.00
C 115.99 247.71 115.59 247.07 115.00 246.00
C 113.79 244.32 109.65 240.76 108.00 240.00
C 101.94 237.84 96.13 239.30 92.00 244.00 Z"/>
</g>
<g fill="#399CD0" fill-opacity="0.18" stroke="None">
<path d="
M 300.00 240.00 
C 306.78 244.70 314.21 251.57 307.74 260.74 C 301.28 269.92 291.85 268.09 281.00 268.00 C 270.15 267.91 259.47 268.38 248.00 268.00 C 236.53 267.62 239.89 285.08 232.00 286.00
C 230.73 273.44 237.01 262.70 251.00 263.00 C 264.99 263.30 279.20 263.14 294.00 263.00 C 308.80 262.86 306.41 241.71 292.00 244.00 C 277.59 246.30 262.26 242.48 249.00 244.00 C 235.74 245.52 229.43 249.38 220.75 258.75 C 212.07 268.12 214.09 281.40 212.00 293.00
C 214.40 280.27 215.42 265.15 226.25 255.25 C 237.07 245.35 254.37 244.78 268.00 246.00 C 281.63 247.22 307.52 239.61 302.00 259.00
C 286.78 261.13 268.52 263.01 253.00 262.00 C 237.48 260.99 224.03 274.78 233.00 289.00
C 228.70 290.21 224.79 291.51 221.00 294.00
C 220.50 294.46 220.41 295.57 220.00 296.00
C 223.23 293.60 226.12 292.72 230.00 292.00
C 240.37 288.63 255.70 288.44 267.00 289.00 C 278.30 289.56 293.18 286.00 297.00 299.00
C 299.62 307.93 293.53 316.18 285.00 318.00
C 294.46 318.04 300.61 309.34 298.93 300.07 C 297.24 290.81 288.33 287.66 280.00 287.00
C 273.30 287.12 264.73 287.65 258.00 287.00
C 250.44 286.42 243.33 287.72 236.00 288.00
C 237.47 280.11 241.06 268.29 252.00 269.00 C 262.94 269.71 274.19 268.41 284.33 269.67 C 294.47 270.93 304.58 269.57 309.68 260.68 C 314.78 251.78 308.46 241.19 300.00 239.00
C 300.00 239.00 299.77 239.84 300.00 240.00 Z"/>
</g>
<g fill="#F2F6FD" fill-opacity="0.95" stroke="None">
<path d="
M 92.00 244.00 
C 89.51 246.83 89.22 247.94 89.00 252.00
C 88.50 261.27 89.00 270.71 89.00 280.00
C 89.00 292.67 89.00 305.33 89.00 318.00
C 89.00 329.28 91.22 338.13 98.00 347.00
C 102.04 348.68 105.03 354.15 108.00 357.00
C 109.35 357.71 110.89 359.05 112.00 360.00
C 130.39 372.71 157.84 370.55 175.00 357.00
C 177.94 354.28 180.30 349.81 184.00 348.00
C 184.40 347.80 185.00 348.00 185.00 348.00
C 187.97 338.90 193.29 332.41 194.00 322.00
C 194.52 314.41 194.00 306.61 194.00 299.00
C 193.04 289.09 192.46 275.44 193.00 265.00 C 193.54 254.56 193.36 242.64 182.00 240.00
C 167.07 238.64 165.30 249.64 166.00 262.00 C 166.70 274.36 166.00 286.64 166.00 299.00
C 166.00 306.36 166.18 314.40 165.00 321.00
C 162.15 336.90 148.12 345.05 131.78 339.22 C 115.44 333.40 117.00 313.94 117.00 299.00
C 115.53 283.83 116.00 266.91 116.00 251.00
C 116.00 250.50 116.00 250.00 116.00 250.00
C 109.65 242.08 101.90 236.11 92.00 244.00
M 113.00 252.00 
C 113.94 262.42 112.93 274.37 112.00 284.00
C 112.00 296.58 111.06 309.83 113.00 322.00
C 115.02 334.71 123.71 344.10 137.00 345.00
C 139.60 345.18 142.40 345.14 145.00 345.00
C 159.18 344.23 166.94 335.16 170.00 322.00
C 170.51 317.46 170.00 312.57 170.00 308.00
C 169.15 299.27 167.89 282.90 169.00 274.00 C 170.11 265.10 164.31 246.84 175.00 244.00
C 175.47 243.88 176.00 244.00 176.00 244.00
C 187.00 235.86 192.24 253.96 191.00 263.00 C 189.76 272.04 190.88 289.90 190.00 299.00
C 190.00 306.38 189.90 314.37 189.00 321.00
C 189.00 322.32 189.09 323.68 189.00 325.00
C 188.46 332.63 184.57 339.26 180.00 345.00
C 178.63 347.81 175.06 350.75 173.00 353.00
C 170.85 355.35 169.04 356.83 166.00 358.00
C 165.05 358.37 164.01 358.58 163.00 359.00
C 158.64 361.83 155.68 363.61 150.00 364.00
C 144.48 364.38 138.52 364.30 133.00 364.00
C 127.49 363.70 124.89 362.87 121.00 360.00
C 106.77 349.53 96.64 341.51 94.00 323.00
C 92.67 313.69 93.96 302.91 93.00 293.00
C 91.94 282.03 88.05 258.51 94.00 249.00
C 95.05 246.61 96.72 245.02 99.00 244.00
C 105.27 241.20 111.96 244.96 113.00 252.00 Z"/>
</g>
<g fill="#94DAF0" fill-opacity="0.64" stroke="None">
<path d="
M 115.00 246.00 
C 113.51 243.28 110.76 240.98 108.00 240.00
C 109.65 240.76 113.79 244.32 115.00 246.00 Z"/>
</g>
<g fill="#D7FCFE" fill-opacity="0.89" stroke="None">
<path d="
M 194.00 299.00 
C 194.00 296.00 194.00 293.00 194.00 290.00
C 194.00 276.61 200.72 241.70 182.00 240.00
C 193.36 242.64 193.54 254.56 193.00 265.00 C 192.46 275.44 193.04 289.09 194.00 299.00 Z"/>
</g>
<g fill="#D7F9FC" fill-opacity="0.93" stroke="None">
<path d="
M 233.00 243.00 
C 229.11 246.55 221.42 249.41 218.25 254.25 C 215.08 259.08 210.27 266.28 209.08 271.08 C 207.88 275.88 205.48 293.07 211.00 293.00
C 211.00 293.00 211.54 293.14 212.00 293.00
C 214.09 281.40 212.07 268.12 220.75 258.75 C 229.43 249.38 235.74 245.52 249.00 244.00 C 262.26 242.48 277.59 246.30 292.00 244.00 C 306.41 241.71 308.80 262.86 294.00 263.00 C 279.20 263.14 264.99 263.30 251.00 263.00 C 237.01 262.70 230.73 273.44 232.00 286.00
C 239.89 285.08 236.53 267.62 248.00 268.00 C 259.47 268.38 270.15 267.91 281.00 268.00 C 291.85 268.09 301.28 269.92 307.74 260.74 C 314.21 251.57 306.78 244.70 300.00 240.00
C 278.29 241.95 253.28 235.51 233.00 243.00 Z"/>
</g>
<g fill="#3AA1D4" fill-opacity="0.18" stroke="None">
<path d="
M 211.00 293.00 
C 205.48 293.07 207.88 275.88 209.08 271.08 C 210.27 266.28 215.08 259.08 218.25 254.25 C 221.42 249.41 229.11 246.55 233.00 243.00
C 233.39 242.65 233.48 241.36 234.00 241.00
C 228.66 243.15 225.34 246.27 220.75 249.75 C 216.16 253.23 214.83 258.19 211.25 262.25 C 207.67 266.31 208.30 275.71 206.93 279.93 C 205.56 284.15 206.51 296.57 211.00 293.00 Z"/>
</g>
<g fill="#C1F5FD" fill-opacity="0.91" stroke="None">
<path d="
M 99.00 244.00 
C 104.60 242.52 110.14 245.85 112.00 251.00
C 112.16 251.44 112.00 252.00 112.00 252.00
C 112.25 252.25 113.00 252.00 113.00 252.00
C 111.96 244.96 105.27 241.20 99.00 244.00 Z"/>
</g>
<g fill="#D9FCFE" fill-opacity="0.96" stroke="None">
<path d="
M 176.00 244.00 
C 182.50 243.38 187.05 244.82 189.00 251.00
C 192.80 263.01 190.00 280.88 190.00 294.00
C 190.00 295.67 190.00 297.33 190.00 299.00
C 190.88 289.90 189.76 272.04 191.00 263.00 C 192.24 253.96 187.00 235.86 176.00 244.00 Z"/>
</g>
<g fill="#45B3D6" fill-opacity="0.26" stroke="None">
<path d="
M 94.00 249.00 
C 93.72 249.64 93.15 251.24 93.00 252.00
C 93.09 252.25 93.74 252.88 94.00 253.00
C 94.41 253.19 95.00 253.00 95.00 253.00
C 96.64 243.89 104.38 244.78 110.00 250.00
C 110.25 250.23 111.92 250.83 112.00 251.00
C 110.14 245.85 104.60 242.52 99.00 244.00
C 96.72 245.02 95.05 246.61 94.00 249.00 Z"/>
</g>
<g fill="#DEFCFE" fill-opacity="0.92" stroke="None">
<path d="
M 170.00 308.00 
C 170.00 304.67 170.00 301.33 170.00 298.00
C 170.00 289.33 170.00 280.67 170.00 272.00
C 170.00 265.26 169.01 256.88 171.00 251.00
C 171.18 249.84 171.43 249.04 172.00 248.00
C 172.75 246.65 174.04 245.12 175.00 244.00
C 164.31 246.84 170.11 265.10 169.00 274.00 C 167.89 282.90 169.15 299.27 170.00 308.00 Z"/>
</g>
<g fill="#4BABD5" fill-opacity="0.33" stroke="None">
<path d="
M 172.00 248.00 
C 172.99 246.61 175.41 245.23 177.00 245.00
C 181.58 244.34 184.14 247.33 187.00 250.00
C 187.23 250.22 188.93 250.85 189.00 251.00
C 187.05 244.82 182.50 243.38 176.00 244.00
C 176.00 244.00 175.47 243.88 175.00 244.00
C 174.04 245.12 172.75 246.65 172.00 248.00 Z"/>
</g>
<g fill="#2B97CD" fill-opacity="0.09" stroke="None">
<path d="
M 172.00 248.00 
C 171.43 249.04 171.18 249.84 171.00 251.00
C 170.03 257.31 170.43 265.64 171.00 272.00
C 171.50 272.00 172.00 272.00 172.00 272.00
C 172.00 265.88 168.99 246.95 177.00 245.00
C 175.41 245.23 172.99 246.61 172.00 248.00 Z"/>
</g>
<g fill="#000000" fill-opacity="0.00" stroke="None">
<path d="
M 172.00 272.00 
C 172.00 282.67 172.00 293.33 172.00 304.00
C 172.00 321.90 169.41 341.47 149.98 345.98 C 130.54 350.48 115.02 340.16 111.00 322.00
C 109.15 313.66 110.27 302.51 110.00 294.00 C 109.73 285.49 109.60 285.98 110.00 280.00 C 110.40 274.02 108.82 269.60 110.00 265.00 C 111.18 260.40 107.24 252.94 110.00 250.00
C 104.38 244.78 96.64 243.89 95.00 253.00
C 96.30 267.40 95.00 282.53 95.00 297.00
C 95.00 303.00 95.00 309.00 95.00 315.00
C 95.00 316.00 95.00 317.00 95.00 318.00
C 95.00 330.89 99.75 339.95 107.75 349.25 C 115.76 358.54 127.22 358.89 138.00 362.00
C 138.80 362.23 139.15 362.82 140.00 363.00
C 149.48 362.93 164.04 359.41 172.00 353.00
C 172.23 350.78 177.92 344.79 180.00 344.00
C 181.08 339.11 185.36 329.40 188.00 325.00
C 187.58 320.42 188.00 315.60 188.00 311.00
C 188.00 297.00 188.00 283.00 188.00 269.00
C 188.00 263.21 189.40 255.19 187.00 250.00
C 184.14 247.33 181.58 244.34 177.00 245.00
C 168.99 246.95 172.00 265.88 172.00 272.00 Z"/>
</g>
<g fill="#D0FEFE" fill-opacity="0.92" stroke="None">
<path d="
M 93.00 293.00 
C 91.91 280.99 90.66 263.79 93.00 252.00
C 93.15 251.24 93.72 249.64 94.00 249.00
C 88.05 258.51 91.94 282.03 93.00 293.00 Z"/>
</g>
<g fill="#4C98C3" fill-opacity="0.28" stroke="None">
<path d="
M 116.00 250.00 
C 116.00 250.00 116.00 250.50 116.00 251.00
C 119.80 256.13 116.18 266.19 117.00 273.00 C 117.82 279.81 117.00 289.89 117.00 297.00
C 117.34 296.77 118.00 297.00 118.00 297.00
C 118.00 282.06 119.84 265.81 118.00 251.00
C 117.86 250.60 116.24 249.44 116.00 249.00
C 116.00 249.00 116.00 249.50 116.00 250.00 Z"/>
</g>
<g fill="#3F77C5" fill-opacity="0.13" stroke="None">
<path d="
M 111.00 322.00 
C 111.10 322.20 112.83 321.76 113.00 322.00
C 111.06 309.83 112.00 296.58 112.00 284.00
C 112.00 273.33 112.00 262.67 112.00 252.00
C 112.00 252.00 112.16 251.44 112.00 251.00
C 111.92 250.83 110.25 250.23 110.00 250.00
C 107.24 252.94 111.18 260.40 110.00 265.00 C 108.82 269.60 110.40 274.02 110.00 280.00 C 109.60 285.98 109.73 285.49 110.00 294.00 C 110.27 302.51 109.15 313.66 111.00 322.00 Z"/>
</g>
<g fill="#1B8FC9" fill-opacity="0.07" stroke="None">
<path d="
M 188.00 269.00 
C 188.00 268.96 189.00 269.00 189.00 269.00
C 189.00 264.46 190.86 255.05 189.00 251.00
C 188.93 250.85 187.23 250.22 187.00 250.00
C 189.40 255.19 188.00 263.21 188.00 269.00 Z"/>
</g>
<g fill="#C6F9FE" fill-opacity="0.89" stroke="None">
<path d="
M 117.00 299.00 
C 117.00 298.50 117.00 297.50 117.00 297.00
C 117.00 289.89 117.82 279.81 117.00 273.00 C 116.18 266.19 119.80 256.13 116.00 251.00
C 116.00 266.91 115.53 283.83 117.00 299.00 Z"/>
</g>
<g fill="#66B2D8" fill-opacity="0.49" stroke="None">
<path d="
M 170.00 272.00 
C 170.00 271.96 171.00 272.00 171.00 272.00
C 170.43 265.64 170.03 257.31 171.00 251.00
C 169.01 256.88 170.00 265.26 170.00 272.00 Z"/>
</g>
<g fill="#70B4E3" fill-opacity="0.59" stroke="None">
<path d="
M 189.00 269.00 
C 189.00 277.33 189.00 285.67 189.00 294.00
C 189.00 293.96 190.00 294.00 190.00 294.00
C 190.00 280.88 192.80 263.01 189.00 251.00
C 190.86 255.05 189.00 264.46 189.00 269.00 Z"/>
</g>
<g fill="#A0D4EF" fill-opacity="0.69" stroke="None">
<path d="
M 88.00 272.00 
C 88.00 274.67 88.00 277.33 88.00 280.00
C 88.00 279.96 89.00 280.00 89.00 280.00
C 89.00 270.71 88.50 261.27 89.00 252.00
C 88.03 257.99 88.00 265.26 88.00 272.00 Z"/>
</g>
<g fill="#5AA4CB" fill-opacity="0.41" stroke="None">
<path d="
M 93.00 293.00 
C 93.00 292.96 94.00 293.00 94.00 293.00
C 94.00 280.12 95.83 265.73 94.00 253.00
C 93.74 252.88 93.09 252.25 93.00 252.00
C 90.66 263.79 91.91 280.99 93.00 293.00 Z"/>
</g>
<g fill="#A8D8F1" fill-opacity="0.77" stroke="None">
<path d="
M 112.00 284.00 
C 112.93 274.37 113.94 262.42 113.00 252.00
C 113.00 252.00 112.25 252.25 112.00 252.00
C 112.00 262.67 112.00 273.33 112.00 284.00 Z"/>
</g>
<g fill="#0079FF" fill-opacity="0.01" stroke="None">
<path d="
M 94.00 293.00 
C 94.00 294.33 94.00 295.67 94.00 297.00
C 94.13 297.22 95.00 297.00 95.00 297.00
C 95.00 282.53 96.30 267.40 95.00 253.00
C 95.00 253.00 94.41 253.19 94.00 253.00
C 95.83 265.73 94.00 280.12 94.00 293.00 Z"/>
</g>
<g fill="#3D77CF" fill-opacity="0.05" stroke="None">
<path d="
M 188.00 311.00 
C 188.00 310.96 189.00 311.00 189.00 311.00
C 189.00 305.33 189.00 299.67 189.00 294.00
C 189.00 285.67 189.00 277.33 189.00 269.00
C 189.00 269.00 188.00 268.96 188.00 269.00
C 188.00 283.00 188.00 297.00 188.00 311.00 Z"/>
</g>
<g fill="#5D6DC1" fill-opacity="0.13" stroke="None">
<path d="
M 87.00 276.00 
C 87.00 280.41 86.35 285.34 86.00 289.00
C 86.00 305.71 82.73 337.33 98.00 348.00
C 97.77 347.84 98.00 347.00 98.00 347.00
C 91.22 338.13 89.00 329.28 89.00 318.00
C 87.85 306.09 88.00 292.62 88.00 280.00
C 88.00 277.33 88.00 274.67 88.00 272.00
C 88.00 272.00 87.13 271.78 87.00 272.00
C 87.00 273.33 87.00 274.67 87.00 276.00 Z"/>
</g>
<g fill="#5490D2" fill-opacity="0.24" stroke="None">
<path d="
M 170.00 298.00 
C 170.17 299.47 170.94 301.90 171.00 304.00
C 171.00 304.00 172.00 304.00 172.00 304.00
C 172.00 293.33 172.00 282.67 172.00 272.00
C 172.00 272.00 171.50 272.00 171.00 272.00
C 171.00 272.00 170.00 271.96 170.00 272.00
C 170.00 280.67 170.00 289.33 170.00 298.00 Z"/>
</g>
<g fill="#5555AA" fill-opacity="0.01" stroke="None">
<path d="
M 164.00 283.00 
C 164.26 280.25 164.27 276.82 164.00 274.00
C 164.00 277.00 164.00 280.00 164.00 283.00 Z"/>
</g>
<g fill="#0000FF" fill-opacity="0.00" stroke="None">
<path d="
M 86.00 289.00 
C 86.35 285.34 87.00 280.41 87.00 276.00
C 86.49 279.75 86.00 284.53 86.00 289.00 Z"/>
</g>
<g fill="#3B86C4" fill-opacity="0.02" stroke="None">
<path d="
M 196.00 290.00 
C 196.00 286.00 196.00 282.00 196.00 278.00
C 195.63 281.87 195.11 285.95 196.00 290.00 Z"/>
</g>
<g fill="#ABC0E6" fill-opacity="0.65" stroke="None">
<path d="
M 89.00 318.00 
C 89.00 305.33 89.00 292.67 89.00 280.00
C 89.00 280.00 88.00 279.96 88.00 280.00
C 88.00 292.62 87.85 306.09 89.00 318.00 Z"/>
</g>
<g fill="#00AAAA" fill-opacity="0.01" stroke="None">
<path d="
M 280.00 287.00 
C 272.77 286.43 265.26 287.00 258.00 287.00
C 264.73 287.65 273.30 287.12 280.00 287.00 Z"/>
</g>
<g fill="#BBF1FD" fill-opacity="0.84" stroke="None">
<path d="
M 230.00 292.00 
C 240.74 290.00 256.10 289.63 267.00 290.00 C 277.90 290.37 291.82 287.68 297.00 299.00
C 293.18 286.00 278.30 289.56 267.00 289.00 C 255.70 288.44 240.37 288.63 230.00 292.00 Z"/>
</g>
<g fill="#5555AA" fill-opacity="0.01" stroke="None">
<path d="
M 164.00 313.00 
C 164.39 308.94 165.00 303.74 165.00 299.00
C 165.00 295.91 164.23 292.42 164.00 290.00
C 164.00 297.67 164.00 305.33 164.00 313.00 Z"/>
</g>
<g fill="#7694CF" fill-opacity="0.34" stroke="None">
<path d="
M 194.00 299.00 
C 194.00 306.61 194.52 314.41 194.00 322.00
C 194.01 321.94 195.00 322.00 195.00 322.00
C 195.00 313.98 193.05 301.93 196.00 295.00
C 196.00 294.50 196.00 293.50 196.00 293.00
C 195.85 292.42 194.16 290.62 194.00 290.00
C 194.00 293.00 194.00 296.00 194.00 299.00 Z"/>
</g>
<g fill="#F0F3FD" fill-opacity="0.92" stroke="None">
<path d="
M 230.00 292.00 
C 226.12 292.72 223.23 293.60 220.00 296.00
C 209.48 307.28 204.80 318.50 209.00 334.00
C 212.91 348.42 225.74 360.36 240.00 364.00
C 249.52 366.43 261.87 366.97 272.00 366.00 C 282.13 365.03 295.17 369.13 304.00 364.00
C 310.93 356.58 313.15 344.42 301.97 340.03 C 290.79 335.63 277.34 338.80 266.00 338.00 C 254.66 337.20 241.25 340.76 237.00 328.00
C 232.99 315.96 243.95 317.89 253.00 318.00 C 262.05 318.11 272.80 318.00 282.00 318.00
C 283.00 318.00 284.00 318.00 285.00 318.00
C 293.53 316.18 299.62 307.93 297.00 299.00
C 291.82 287.68 277.90 290.37 267.00 290.00 C 256.10 289.63 240.74 290.00 230.00 292.00
M 293.00 300.00 
C 293.34 301.69 293.59 306.87 292.00 308.00
C 291.61 309.50 288.37 311.45 287.00 312.00
C 273.27 317.45 253.88 310.33 239.00 313.00
C 232.39 315.09 230.34 320.03 231.00 327.00
C 235.57 333.53 239.78 343.59 250.07 342.93 C 260.37 342.27 275.16 344.17 285.00 343.00 C 294.84 341.83 310.84 344.07 305.00 357.00
C 300.58 366.78 285.05 362.89 276.00 363.00 C 266.95 363.11 252.57 365.39 245.00 361.00
C 243.63 360.77 243.93 360.40 243.00 360.00
C 228.71 358.18 217.61 344.93 214.00 332.00
C 209.71 325.66 212.79 315.34 216.00 309.00
C 219.47 302.13 223.84 298.45 231.00 296.00
C 238.85 291.99 254.96 292.22 264.00 293.00 C 273.04 293.78 290.69 288.60 293.00 300.00 Z"/>
</g>
<g fill="#7E91C3" fill-opacity="0.41" stroke="None">
<path d="
M 94.00 323.00 
C 94.02 321.02 94.76 319.33 95.00 318.00
C 95.00 317.00 95.00 316.00 95.00 315.00
C 93.82 309.60 94.00 303.07 94.00 297.00
C 94.00 295.67 94.00 294.33 94.00 293.00
C 94.00 293.00 93.00 292.96 93.00 293.00
C 93.96 302.91 92.67 313.69 94.00 323.00 Z"/>
</g>
<g fill="#BDE8FE" fill-opacity="0.81" stroke="None">
<path d="
M 231.00 296.00 
C 239.41 293.12 255.41 293.31 264.00 294.00 C 272.59 294.69 290.10 289.82 293.00 300.00
C 290.69 288.60 273.04 293.78 264.00 293.00 C 254.96 292.22 238.85 291.99 231.00 296.00 Z"/>
</g>
<g fill="#8291DA" fill-opacity="0.50" stroke="None">
<path d="
M 189.00 311.00 
C 189.00 314.33 189.00 317.67 189.00 321.00
C 189.90 314.37 190.00 306.38 190.00 299.00
C 190.00 297.33 190.00 295.67 190.00 294.00
C 190.00 294.00 189.00 293.96 189.00 294.00
C 189.00 299.67 189.00 305.33 189.00 311.00 Z"/>
</g>
<g fill="#5A76CA" fill-opacity="0.20" stroke="None">
<path d="
M 208.00 334.00 
C 208.19 334.24 209.00 334.00 209.00 334.00
C 204.80 318.50 209.48 307.28 220.00 296.00
C 220.41 295.57 220.50 294.46 221.00 294.00
C 210.77 300.74 198.91 322.25 208.00 334.00 Z"/>
</g>
<g fill="#4391CE" fill-opacity="0.20" stroke="None">
<path d="
M 231.00 296.00 
C 223.84 298.45 219.47 302.13 216.00 309.00
C 216.49 308.52 217.56 308.41 218.00 308.00
C 225.03 296.29 242.83 293.60 255.00 295.00 C 267.17 296.40 294.25 289.00 291.00 307.00
C 290.95 307.30 292.02 307.93 292.00 308.00
C 293.59 306.87 293.34 301.69 293.00 300.00
C 290.10 289.82 272.59 294.69 264.00 294.00 C 255.41 293.31 239.41 293.12 231.00 296.00 Z"/>
</g>
<g fill="#5062C6" fill-opacity="0.02" stroke="None">
<path d="
M 195.00 322.00 
C 195.00 323.00 195.00 324.00 195.00 325.00
C 196.48 315.86 196.00 304.93 196.00 295.00
C 193.05 301.93 195.00 313.98 195.00 322.00 Z"/>
</g>
<g fill="#000000" fill-opacity="0.00" stroke="None">
<path d="
M 218.00 308.00 
C 213.67 315.21 212.89 323.72 215.00 332.00
C 218.47 345.61 231.57 357.42 245.00 360.00
C 246.33 360.00 247.67 360.00 249.00 360.00
C 263.67 360.00 278.33 360.00 293.00 360.00
C 294.15 360.00 295.90 359.67 297.00 360.00
C 311.36 358.75 301.87 341.07 291.00 344.00 C 280.13 346.93 262.93 342.28 253.00 344.00 C 243.07 345.72 230.29 337.36 231.00 328.00
C 227.72 312.15 239.50 310.26 253.00 311.00 C 266.50 311.74 280.36 312.68 291.00 307.00
C 294.25 289.00 267.17 296.40 255.00 295.00 C 242.83 293.60 225.03 296.29 218.00 308.00 Z"/>
</g>
<g fill="#8080FF" fill-opacity="0.01" stroke="None">
<path d="
M 95.00 315.00 
C 95.00 309.00 95.00 303.00 95.00 297.00
C 95.00 297.00 94.13 297.22 94.00 297.00
C 94.00 303.07 93.82 309.60 95.00 315.00 Z"/>
</g>
<g fill="#7477C6" fill-opacity="0.23" stroke="None">
<path d="
M 117.00 299.00 
C 117.00 313.94 115.44 333.40 131.78 339.22 C 148.12 345.05 162.15 336.90 165.00 321.00
C 164.88 319.66 164.25 319.82 164.00 319.00
C 163.32 334.85 147.51 343.67 132.22 337.78 C 116.94 331.88 118.00 312.09 118.00 297.00
C 118.00 297.00 117.34 296.77 117.00 297.00
C 117.00 297.50 117.00 298.50 117.00 299.00 Z"/>
</g>
<g fill="#8091CF" fill-opacity="0.46" stroke="None">
<path d="
M 170.00 308.00 
C 170.00 312.57 170.51 317.46 170.00 322.00
C 171.24 316.68 171.17 310.02 171.00 304.00
C 170.94 301.90 170.17 299.47 170.00 298.00
C 170.00 301.33 170.00 304.67 170.00 308.00 Z"/>
</g>
<g fill="#99A1E8" fill-opacity="0.35" stroke="None">
<path d="
M 164.00 313.00 
C 164.00 314.99 164.09 317.01 164.00 319.00
C 164.25 319.82 164.88 319.66 165.00 321.00
C 166.18 314.40 166.00 306.36 166.00 299.00
C 166.00 299.00 165.00 298.96 165.00 299.00
C 165.00 303.74 164.39 308.94 164.00 313.00 Z"/>
</g>
<g fill="#726FC9" fill-opacity="0.14" stroke="None">
<path d="
M 170.00 322.00 
C 166.94 335.16 159.18 344.23 145.00 345.00
C 142.12 345.47 139.84 345.51 137.00 345.00
C 123.71 344.10 115.02 334.71 113.00 322.00
C 112.83 321.76 111.10 322.20 111.00 322.00
C 115.02 340.16 130.54 350.48 149.98 345.98 C 169.41 341.47 172.00 321.90 172.00 304.00
C 172.00 304.00 171.00 304.00 171.00 304.00
C 171.17 310.02 171.24 316.68 170.00 322.00 Z"/>
</g>
<g fill="#4B71C9" fill-opacity="0.10" stroke="None">
<path d="
M 231.00 328.00 
C 231.04 327.50 231.00 327.00 231.00 327.00
C 230.34 320.03 232.39 315.09 239.00 313.00
C 253.54 308.40 271.89 315.69 287.00 312.00
C 288.37 311.45 291.61 309.50 292.00 308.00
C 292.02 307.93 290.95 307.30 291.00 307.00
C 280.36 312.68 266.50 311.74 253.00 311.00 C 239.50 310.26 227.72 312.15 231.00 328.00 Z"/>
</g>
<g fill="#7E8BCE" fill-opacity="0.15" stroke="None">
<path d="
M 216.00 309.00 
C 212.79 315.34 209.71 325.66 214.00 332.00
C 214.16 332.23 215.00 332.00 215.00 332.00
C 212.89 323.72 213.67 315.21 218.00 308.00
C 217.56 308.41 216.49 308.52 216.00 309.00 Z"/>
</g>
<g fill="#5C5EC3" fill-opacity="0.07" stroke="None">
<path d="
M 188.00 325.00 
C 188.13 324.78 189.00 325.00 189.00 325.00
C 189.09 323.68 189.00 322.32 189.00 321.00
C 189.00 317.67 189.00 314.33 189.00 311.00
C 189.00 311.00 188.00 310.96 188.00 311.00
C 188.00 315.60 187.58 320.42 188.00 325.00 Z"/>
</g>
<g fill="#94B5E3" fill-opacity="0.55" stroke="None">
<path d="
M 239.00 313.00 
C 253.88 310.33 273.27 317.45 287.00 312.00
C 271.89 315.69 253.54 308.40 239.00 313.00 Z"/>
</g>
<g fill="#746CC0" fill-opacity="0.17" stroke="None">
<path d="
M 94.00 323.00 
C 96.64 341.51 106.77 349.53 121.00 360.00
C 124.59 361.60 129.51 361.16 133.00 363.00
C 134.26 362.96 137.57 361.97 138.00 362.00
C 127.22 358.89 115.76 358.54 107.75 349.25 C 99.75 339.95 95.00 330.89 95.00 318.00
C 94.76 319.33 94.02 321.02 94.00 323.00 Z"/>
</g>
<g fill="#5574D2" fill-opacity="0.06" stroke="None">
<path d="
M 237.00 328.00 
C 237.37 328.48 238.69 328.62 239.00 329.00
C 232.53 317.26 245.48 318.93 254.00 319.00 C 262.52 319.07 274.06 319.74 282.00 318.00
C 272.80 318.00 262.05 318.11 253.00 318.00 C 243.95 317.89 232.99 315.96 237.00 328.00 Z"/>
</g>
<g fill="#7671BB" fill-opacity="0.17" stroke="None">
<path d="
M 185.00 348.00 
C 191.22 343.95 195.03 332.08 195.00 325.00
C 195.00 324.00 195.00 323.00 195.00 322.00
C 195.00 322.00 194.01 321.94 194.00 322.00
C 193.29 332.41 187.97 338.90 185.00 348.00 Z"/>
</g>
<g fill="#7C70C7" fill-opacity="0.24" stroke="None">
<path d="
M 180.00 344.00 
C 179.90 344.48 180.00 345.00 180.00 345.00
C 184.57 339.26 188.46 332.63 189.00 325.00
C 189.00 325.00 188.13 324.78 188.00 325.00
C 185.36 329.40 181.08 339.11 180.00 344.00 Z"/>
</g>
<g fill="#8B74CA" fill-opacity="0.14" stroke="None">
<path d="
M 231.00 328.00 
C 230.29 337.36 243.07 345.72 253.00 344.00 C 262.93 342.28 280.13 346.93 291.00 344.00 C 301.87 341.07 311.36 358.75 297.00 360.00
C 297.68 360.20 297.78 361.03 299.00 361.00
C 300.61 360.41 304.10 358.67 305.00 357.00
C 310.84 344.07 294.84 341.83 285.00 343.00 C 275.16 344.17 260.37 342.27 250.07 342.93 C 239.78 343.59 235.57 333.53 231.00 327.00
C 231.00 327.00 231.04 327.50 231.00 328.00 Z"/>
</g>
<g fill="#7D6ECA" fill-opacity="0.15" stroke="None">
<path d="
M 304.00 364.00 
C 303.63 364.40 303.34 365.73 303.00 366.00
C 312.31 361.84 315.99 347.24 306.25 340.75 C 296.50 334.27 281.99 337.26 270.00 337.00 C 258.01 336.74 246.93 338.68 239.00 329.00
C 238.69 328.62 237.37 328.48 237.00 328.00
C 241.25 340.76 254.66 337.20 266.00 338.00 C 277.34 338.80 290.79 335.63 301.97 340.03 C 313.15 344.42 310.93 356.58 304.00 364.00 Z"/>
</g>
<g fill="#7969C2" fill-opacity="0.15" stroke="None">
<path d="
M 243.00 360.00 
C 243.49 360.06 244.50 360.00 245.00 360.00
C 231.57 357.42 218.47 345.61 215.00 332.00
C 215.00 332.00 214.16 332.23 214.00 332.00
C 217.61 344.93 228.71 358.18 243.00 360.00 Z"/>
</g>
<g fill="#8B70CB" fill-opacity="0.21" stroke="None">
<path d="
M 240.00 365.00 
C 239.76 364.81 240.00 364.00 240.00 364.00
C 225.74 360.36 212.91 348.42 209.00 334.00
C 209.00 334.00 208.19 334.24 208.00 334.00
C 211.19 345.11 225.19 367.31 240.00 365.00 Z"/>
</g>
<g fill="#675FC3" fill-opacity="0.09" stroke="None">
<path d="
M 172.00 353.00 
C 172.14 352.78 173.00 353.00 173.00 353.00
C 175.06 350.75 178.63 347.81 180.00 345.00
C 180.00 345.00 179.90 344.48 180.00 344.00
C 177.92 344.79 172.23 350.78 172.00 353.00 Z"/>
</g>
<g fill="#C4ACE8" fill-opacity="0.72" stroke="None">
<path d="
M 145.00 345.00 
C 142.40 345.14 139.60 345.18 137.00 345.00
C 139.84 345.51 142.12 345.47 145.00 345.00 Z"/>
</g>
<g fill="#E4D4FD" fill-opacity="0.80" stroke="None">
<path d="
M 98.00 348.00 
C 101.31 350.32 104.72 353.74 107.00 357.00
C 107.40 357.20 108.00 357.00 108.00 357.00
C 105.03 354.15 102.04 348.68 98.00 347.00
C 98.00 347.00 97.77 347.84 98.00 348.00 Z"/>
</g>
<g fill="#907CC6" fill-opacity="0.34" stroke="None">
<path d="
M 98.00 349.00 
C 101.18 351.22 103.57 355.32 107.00 357.00
C 104.72 353.74 101.31 350.32 98.00 348.00
C 98.00 348.00 97.80 348.60 98.00 349.00 Z"/>
</g>
<g fill="#EFDDFD" fill-opacity="0.78" stroke="None">
<path d="
M 175.00 357.00 
C 178.25 354.44 181.65 351.36 184.00 348.00
C 180.30 349.81 177.94 354.28 175.00 357.00 Z"/>
</g>
<g fill="#A57BD3" fill-opacity="0.18" stroke="None">
<path d="
M 175.00 357.00 
C 157.84 370.55 130.39 372.71 112.00 360.00
C 112.25 360.21 112.00 361.00 112.00 361.00
C 119.05 370.63 134.66 368.28 145.00 369.00 C 155.34 369.72 167.80 364.47 176.00 358.00
C 179.09 355.15 181.51 351.43 185.00 349.00
C 185.00 349.00 185.25 348.25 185.00 348.00
C 185.00 348.00 184.40 347.80 184.00 348.00
C 181.65 351.36 178.25 354.44 175.00 357.00 Z"/>
</g>
<g fill="#7861C2" fill-opacity="0.11" stroke="None">
<path d="
M 112.00 361.00 
C 112.00 361.00 112.25 360.21 112.00 360.00
C 110.89 359.05 109.35 357.71 108.00 357.00
C 108.00 357.00 107.40 357.20 107.00 357.00
C 103.57 355.32 101.18 351.22 98.00 349.00
C 99.87 352.82 107.87 360.56 112.00 361.00 Z"/>
</g>
<g fill="#6759B9" fill-opacity="0.03" stroke="None">
<path d="
M 176.00 358.00 
C 178.88 355.73 183.32 352.44 185.00 349.00
C 181.51 351.43 179.09 355.15 176.00 358.00 Z"/>
</g>
<g fill="#8F64BD" fill-opacity="0.15" stroke="None">
<path d="
M 140.00 363.00 
C 142.84 363.60 147.10 363.26 150.00 363.00
C 154.49 362.60 158.86 360.72 163.00 359.00
C 164.01 358.58 165.05 358.37 166.00 358.00
C 167.64 357.07 170.95 354.68 172.00 353.00
C 164.04 359.41 149.48 362.93 140.00 363.00 Z"/>
</g>
<g fill="#F2D9FC" fill-opacity="0.73" stroke="None">
<path d="
M 166.00 358.00 
C 169.04 356.83 170.85 355.35 173.00 353.00
C 173.00 353.00 172.14 352.78 172.00 353.00
C 170.95 354.68 167.64 357.07 166.00 358.00 Z"/>
</g>
<g fill="#FCECFE" fill-opacity="0.95" stroke="None">
<path d="
M 299.00 361.00 
C 291.25 363.86 280.71 361.47 272.00 362.00 C 263.29 362.53 253.39 362.40 245.00 361.00
C 252.57 365.39 266.95 363.11 276.00 363.00 C 285.05 362.89 300.58 366.78 305.00 357.00
C 304.10 358.67 300.61 360.41 299.00 361.00 Z"/>
</g>
<g fill="#EFD8F9" fill-opacity="0.84" stroke="None">
<path d="
M 150.00 363.00 
C 149.79 363.11 150.00 364.00 150.00 364.00
C 155.68 363.61 158.64 361.83 163.00 359.00
C 158.86 360.72 154.49 362.60 150.00 363.00 Z"/>
</g>
<g fill="#F1DBFA" fill-opacity="0.85" stroke="None">
<path d="
M 133.00 364.00 
C 132.96 364.00 133.00 363.00 133.00 363.00
C 129.51 361.16 124.59 361.60 121.00 360.00
C 124.89 362.87 127.49 363.70 133.00 364.00 Z"/>
</g>
<g fill="#C4A0E5" fill-opacity="0.57" stroke="None">
<path d="
M 245.00 361.00 
C 253.39 362.40 263.29 362.53 272.00 362.00 C 280.71 361.47 291.25 363.86 299.00 361.00
C 297.78 361.03 297.68 360.20 297.00 360.00
C 295.90 359.67 294.15 360.00 293.00 360.00
C 279.56 361.83 262.37 361.82 249.00 360.00
C 247.67 360.00 246.33 360.00 245.00 360.00
C 244.50 360.00 243.49 360.06 243.00 360.00
C 243.93 360.40 243.63 360.77 245.00 361.00 Z"/>
</g>
<g fill="#808080" fill-opacity="0.01" stroke="None">
<path d="
M 293.00 360.00 
C 278.33 360.00 263.67 360.00 249.00 360.00
C 262.37 361.82 279.56 361.83 293.00 360.00 Z"/>
</g>
<g fill="#C2A2E1" fill-opacity="0.56" stroke="None">
<path d="
M 133.00 363.00 
C 133.00 363.00 132.96 364.00 133.00 364.00
C 138.52 364.30 144.48 364.38 150.00 364.00
C 150.00 364.00 149.79 363.11 150.00 363.00
C 147.10 363.26 142.84 363.60 140.00 363.00
C 139.15 362.82 138.80 362.23 138.00 362.00
C 137.57 361.97 134.26 362.96 133.00 363.00 Z"/>
</g>
<g fill="#BE7CE4" fill-opacity="0.16" stroke="None">
<path d="
M 240.00 365.00 
C 244.19 368.25 254.58 367.57 260.00 368.00
C 262.14 367.96 265.81 367.79 268.00 368.00
C 272.67 368.00 277.33 368.00 282.00 368.00
C 284.77 367.73 288.32 367.79 291.00 368.00
C 295.35 367.91 299.12 367.73 303.00 366.00
C 303.34 365.73 303.63 364.40 304.00 364.00
C 295.17 369.13 282.13 365.03 272.00 366.00 C 261.87 366.97 249.52 366.43 240.00 364.00
C 240.00 364.00 239.76 364.81 240.00 365.00 Z"/>
</g>
<g fill="#8080FF" fill-opacity="0.01" stroke="None">
<path d="
M 260.00 368.00 
C 262.63 368.21 265.36 368.00 268.00 368.00
C 265.81 367.79 262.14 367.96 260.00 368.00 Z"/>
</g>
<g fill="#AA55AA" fill-opacity="0.01" stroke="None">
<path d="
M 282.00 368.00 
C 285.00 368.00 288.00 368.06 291.00 368.00
C 288.32 367.79 284.77 367.73 282.00 368.00 Z"/>
</g>
</svg>